<?xml version="1.0" encoding="UTF-8"?>
<svg width="18px" height="18px" viewBox="0 0 18 18" version="1.1" xmlns="http://www.w3.org/2000/svg"
     xmlns:xlink="http://www.w3.org/1999/xlink">
    <!-- Generator: Sketch 54.1 (76490) - https://sketchapp.com -->
    <title>star</title>
    <desc>Created with Sketch.</desc>
    <g id="star" stroke="none" stroke-width="1" fill="#F27A2A" fill-rule="evenodd">
        <path d="M8.45800724,4.33203132 C8.53276486,4.18446187 8.6417863,4.08608234 8.78507184,4.03689243 C8.92835737,3.98770252 9.07164263,3.98770252 9.21492816,4.03689243 C9.3582137,4.08608234 9.46723514,4.18446187 9.54199276,4.33203132 L10.7568041,6.76692713 L13.4854573,7.15429692 C13.6474323,7.17889174 13.7751431,7.25267646 13.8685901,7.37565109 C13.9620372,7.49862572 14.0056457,7.63389761 13.999416,7.78146706 C13.9931863,7.9290365 13.9340031,8.05815976 13.8218666,8.16883684 L11.8407896,10.0687934 L12.3080248,12.7619358 C12.3329439,12.9095052 12.3049098,13.0478516 12.2239224,13.1769748 C12.1429351,13.3060981 12.0276837,13.3891059 11.8781684,13.4259983 C11.7286532,13.4628906 11.5853677,13.4444444 11.4483121,13.3706597 L9,12.1163195 L6.55168788,13.3706597 C6.41463233,13.4444444 6.2713468,13.4628906 6.12183155,13.4259983 C5.97231631,13.3891059 5.85706488,13.3060981 5.77607755,13.1769748 C5.69509022,13.0478516 5.66705611,12.9095052 5.69197523,12.7619358 L6.15921036,10.0687934 L4.17813338,8.16883684 C4.06599695,8.05815976 4.00681374,7.9290365 4.00058403,7.78146706 C3.99435432,7.63389761 4.03796284,7.49862572 4.13140987,7.37565109 C4.22485689,7.25267646 4.35256774,7.17889174 4.51454268,7.15429692 L7.24319588,6.76692713 L8.45800724,4.33203132 Z"
              id="🎨-Color" fill="#F27A2A"></path>
    </g>
</svg>
